<?xml version="1.0" standalone="no"?>
<!DOCTYPE svg PUBLIC "-//W3C//DTD SVG 20010904//EN"
 "http://www.w3.org/TR/2001/REC-SVG-20010904/DTD/svg10.dtd">
<svg version="1.0" xmlns="http://www.w3.org/2000/svg"
 width="510.000000pt" height="72.000000pt" viewBox="0 0 510.000000 72.000000"
 preserveAspectRatio="xMidYMid meet">
<metadata>
Created by potrace 1.16, written by Peter Selinger 2001-2019
</metadata>
<g transform="translate(0.000000,72.000000) scale(0.100000,-0.100000)"
fill="#000000" stroke="none">
<path d="M2290 585 c0 -20 -7 -26 -39 -35 -56 -15 -91 -60 -91 -115 0 -53 32
-96 90 -119 l40 -16 0 -76 0 -77 -42 6 c-24 3 -53 9 -65 13 -20 5 -23 3 -23
-19 0 -31 22 -45 85 -53 43 -7 45 -8 45 -41 0 -30 3 -34 23 -31 16 2 23 11 27
36 4 29 11 36 45 48 58 19 85 55 85 112 0 60 -17 84 -80 111 l-50 22 0 74 c0
82 5 88 66 65 29 -12 44 -1 44 32 0 12 -15 20 -55 28 -48 10 -55 14 -55 36 0
19 -5 24 -25 24 -20 0 -25 -5 -25 -25z m0 -150 c0 -51 -3 -65 -15 -65 -23 0
-55 37 -55 65 0 28 32 65 55 65 12 0 15 -14 15 -65z m98 -171 c40 -28 24 -94
-25 -109 -22 -6 -23 -4 -23 59 0 71 7 79 48 50z"/>
<path d="M1949 543 c-72 -115 -93 -298 -50 -433 27 -86 45 -110 81 -110 l29 0
-23 53 c-66 149 -61 327 14 466 36 66 37 71 5 71 -19 0 -33 -11 -56 -47z"/>
<path d="M520 391 c0 -104 -4 -201 -10 -215 -16 -44 -60 -56 -147 -41 -41 6
-43 6 -43 -19 0 -35 26 -46 109 -46 67 0 73 2 109 34 l37 34 3 221 3 221 -30
0 -31 0 0 -189z"/>
<path d="M660 325 l0 -255 31 0 31 0 -4 215 c-2 118 -3 213 -2 212 1 -1 21
-68 45 -149 l43 -148 31 0 32 0 46 153 46 152 -6 -218 -6 -217 36 0 37 0 0
255 0 255 -48 0 -49 0 -22 -77 c-51 -178 -63 -215 -67 -210 -4 3 -84 276 -84
284 0 2 -20 3 -45 3 l-45 0 0 -255z"/>
<path d="M1060 326 l0 -256 30 0 30 0 0 94 0 93 79 7 c57 5 89 14 113 29 88
59 92 211 5 262 -25 16 -56 20 -144 23 l-113 4 0 -256z m226 171 c23 -20 27
-32 27 -71 0 -38 -5 -53 -26 -74 -23 -22 -37 -27 -97 -30 l-70 -4 0 101 0 101
69 0 c59 0 74 -4 97 -23z"/>
</g>
</svg>
