<?xml version="1.0" standalone="no"?>
<!DOCTYPE svg PUBLIC "-//W3C//DTD SVG 20010904//EN"
 "http://www.w3.org/TR/2001/REC-SVG-20010904/DTD/svg10.dtd">
<svg version="1.0" xmlns="http://www.w3.org/2000/svg"
 width="425.000000pt" height="72.000000pt" viewBox="0 0 425.000000 72.000000"
 preserveAspectRatio="xMidYMid meet">
<metadata>
Created by potrace 1.16, written by Peter Selinger 2001-2019
</metadata>
<g transform="translate(0.000000,72.000000) scale(0.100000,-0.100000)"
fill="#000000" stroke="none">
<path d="M770 579 c-77 -31 -115 -115 -115 -259 0 -84 4 -102 28 -152 36 -73
74 -98 151 -98 99 0 143 39 172 151 29 114 7 257 -49 318 -43 46 -126 64 -187
40z m135 -73 c31 -32 45 -85 45 -180 0 -142 -34 -201 -117 -201 -36 0 -49 5
-68 28 -32 36 -45 87 -45 170 0 141 37 207 117 207 33 0 50 -6 68 -24z"/>
<path d="M320 325 l0 -255 30 0 30 0 0 105 0 105 43 0 42 0 60 -105 c59 -103
61 -104 97 -105 l37 0 -68 113 -67 112 30 20 c71 46 87 157 30 216 -36 37 -78
49 -181 49 l-83 0 0 -255z m204 174 c36 -29 37 -99 1 -134 -20 -21 -34 -25
-85 -25 l-60 0 0 90 0 90 59 0 c44 0 65 -5 85 -21z"/>
<path d="M1060 325 l0 -255 30 0 30 0 0 105 0 105 43 0 42 0 60 -105 c59 -103
61 -104 97 -105 l37 0 -68 113 -67 112 30 20 c71 46 87 157 30 216 -36 37 -78
49 -181 49 l-83 0 0 -255z m204 174 c36 -29 37 -99 1 -134 -20 -21 -34 -25
-85 -25 l-60 0 0 90 0 90 59 0 c44 0 65 -5 85 -21z"/>
<path d="M1830 333 c-44 -136 -80 -251 -80 -255 0 -4 13 -8 29 -8 27 0 31 5
54 73 l24 72 88 0 88 0 25 -72 c23 -71 24 -73 57 -73 l33 0 -85 255 -85 255
-34 0 -33 0 -81 -247z m180 -45 c0 -5 -30 -8 -66 -8 -58 0 -66 2 -61 18 2 9
17 59 33 111 l29 95 32 -105 c18 -57 33 -107 33 -111z"/>
</g>
</svg>
