<?xml version="1.0" standalone="no"?>
<!DOCTYPE svg PUBLIC "-//W3C//DTD SVG 20010904//EN"
 "http://www.w3.org/TR/2001/REC-SVG-20010904/DTD/svg10.dtd">
<svg version="1.0" xmlns="http://www.w3.org/2000/svg"
 width="255.000000pt" height="72.000000pt" viewBox="0 0 255.000000 72.000000"
 preserveAspectRatio="xMidYMid meet">
<metadata>
Created by potrace 1.16, written by Peter Selinger 2001-2019
</metadata>
<g transform="translate(0.000000,72.000000) scale(0.100000,-0.100000)"
fill="#000000" stroke="none">
<path d="M320 326 l0 -256 30 0 30 0 0 94 0 93 79 7 c57 5 89 14 113 29 88 59
92 211 5 262 -25 16 -56 20 -144 23 l-113 4 0 -256z m226 171 c23 -20 27 -32
27 -71 0 -38 -5 -53 -26 -74 -23 -22 -37 -27 -97 -30 l-70 -4 0 101 0 101 69
0 c59 0 74 -4 97 -23z"/>
<path d="M700 325 l0 -255 145 0 145 0 0 30 0 30 -110 0 -110 0 0 225 0 225
-35 0 -35 0 0 -255z"/>
<path d="M1060 326 l0 -256 30 0 30 0 0 94 0 93 79 7 c57 5 89 14 113 29 88
59 92 211 5 262 -25 16 -56 20 -144 23 l-113 4 0 -256z m226 171 c23 -20 27
-32 27 -71 0 -38 -5 -53 -26 -74 -23 -22 -37 -27 -97 -30 l-70 -4 0 101 0 101
69 0 c59 0 74 -4 97 -23z"/>
</g>
</svg>
