<?xml version="1.0" standalone="no"?>
<!DOCTYPE svg PUBLIC "-//W3C//DTD SVG 20010904//EN"
 "http://www.w3.org/TR/2001/REC-SVG-20010904/DTD/svg10.dtd">
<svg version="1.0" xmlns="http://www.w3.org/2000/svg"
 width="510.000000pt" height="72.000000pt" viewBox="0 0 510.000000 72.000000"
 preserveAspectRatio="xMidYMid meet">
<metadata>
Created by potrace 1.16, written by Peter Selinger 2001-2019
</metadata>
<g transform="translate(0.000000,72.000000) scale(0.100000,-0.100000)"
fill="#000000" stroke="none">
<path d="M2290 585 c0 -20 -7 -26 -39 -35 -56 -15 -91 -60 -91 -115 0 -53 32
-96 90 -119 l40 -16 0 -76 0 -77 -42 6 c-24 3 -53 9 -65 13 -20 5 -23 3 -23
-19 0 -31 22 -45 85 -53 43 -7 45 -8 45 -41 0 -30 3 -34 23 -31 16 2 23 11 27
36 4 29 11 36 45 48 58 19 85 55 85 112 0 60 -17 84 -80 111 l-50 22 0 74 c0
82 5 88 66 65 29 -12 44 -1 44 32 0 12 -15 20 -55 28 -48 10 -55 14 -55 36 0
19 -5 24 -25 24 -20 0 -25 -5 -25 -25z m0 -150 c0 -51 -3 -65 -15 -65 -23 0
-55 37 -55 65 0 28 32 65 55 65 12 0 15 -14 15 -65z m98 -171 c40 -28 24 -94
-25 -109 -22 -6 -23 -4 -23 59 0 71 7 79 48 50z"/>
<path d="M1949 543 c-72 -115 -93 -298 -50 -433 27 -86 45 -110 81 -110 l29 0
-23 53 c-66 149 -61 327 14 466 36 66 37 71 5 71 -19 0 -33 -11 -56 -47z"/>
<path d="M330 325 l0 -255 145 0 145 0 0 30 0 30 -110 0 -110 0 0 225 0 225
-35 0 -35 0 0 -255z"/>
<path d="M670 324 l0 -256 98 4 c112 4 164 27 206 87 69 100 57 285 -23 361
-47 45 -97 60 -200 60 l-81 0 0 -256z m207 176 c53 -32 67 -63 71 -159 3 -75
0 -92 -20 -131 -28 -54 -73 -80 -140 -80 l-48 0 0 195 0 195 53 0 c34 0 63 -7
84 -20z"/>
<path d="M1090 333 c-44 -136 -80 -251 -80 -255 0 -4 13 -8 29 -8 27 0 31 5
54 73 l24 72 88 0 88 0 25 -72 c23 -71 24 -73 57 -73 l33 0 -85 255 -85 255
-34 0 -33 0 -81 -247z m180 -45 c0 -5 -30 -8 -66 -8 -58 0 -66 2 -61 18 2 9
17 59 33 111 l29 95 32 -105 c18 -57 33 -107 33 -111z"/>
</g>
</svg>
