<?xml version="1.0" standalone="no"?>
<!DOCTYPE svg PUBLIC "-//W3C//DTD SVG 20010904//EN"
 "http://www.w3.org/TR/2001/REC-SVG-20010904/DTD/svg10.dtd">
<svg version="1.0" xmlns="http://www.w3.org/2000/svg"
 width="425.000000pt" height="72.000000pt" viewBox="0 0 425.000000 72.000000"
 preserveAspectRatio="xMidYMid meet">
<metadata>
Created by potrace 1.16, written by Peter Selinger 2001-2019
</metadata>
<g transform="translate(0.000000,72.000000) scale(0.100000,-0.100000)"
fill="#000000" stroke="none">
<path d="M2162 539 l4 -61 -30 5 c-17 3 -46 9 -63 13 -30 6 -33 4 -33 -18 0
-20 6 -27 31 -32 17 -3 43 -6 56 -6 25 0 25 0 -12 -51 -36 -48 -37 -51 -19
-64 28 -21 31 -19 59 35 14 28 27 50 30 50 3 0 16 -22 30 -50 14 -27 29 -50
33 -50 4 0 18 7 30 16 l22 15 -35 43 c-19 24 -35 45 -35 48 0 3 23 8 50 10 28
3 52 7 54 9 2 2 2 16 -1 31 l-5 26 -47 -14 c-71 -21 -71 -21 -71 46 0 58 -1
60 -26 60 -26 0 -26 -1 -22 -61z"/>
<path d="M320 325 l0 -255 100 0 c158 0 210 34 218 140 4 55 2 61 -26 90 -17
16 -38 30 -46 30 -24 0 -19 13 13 31 55 32 65 133 18 176 -32 30 -89 43 -189
43 l-88 0 0 -255z m220 175 c12 -12 20 -33 20 -55 0 -57 -27 -75 -110 -75
l-70 0 0 75 0 75 70 0 c57 0 74 -4 90 -20z m11 -217 c31 -31 31 -94 0 -127
-22 -23 -32 -26 -98 -26 l-73 0 0 91 0 91 75 -4 c60 -3 79 -8 96 -25z"/>
<path d="M750 326 l0 -256 30 0 30 0 0 94 0 93 79 7 c57 5 89 14 113 29 88 59
92 211 5 262 -25 16 -56 20 -144 23 l-113 4 0 -256z m226 171 c23 -20 27 -32
27 -71 0 -38 -5 -53 -26 -74 -23 -22 -37 -27 -97 -30 l-70 -4 0 101 0 101 69
0 c59 0 74 -4 97 -23z"/>
<path d="M1190 325 l0 -255 145 0 145 0 0 30 0 30 -110 0 -110 0 0 225 0 225
-35 0 -35 0 0 -255z"/>
</g>
</svg>
