<?xml version="1.0" standalone="no"?>
<!DOCTYPE svg PUBLIC "-//W3C//DTD SVG 20010904//EN"
 "http://www.w3.org/TR/2001/REC-SVG-20010904/DTD/svg10.dtd">
<svg version="1.0" xmlns="http://www.w3.org/2000/svg"
 width="255.000000pt" height="72.000000pt" viewBox="0 0 255.000000 72.000000"
 preserveAspectRatio="xMidYMid meet">
<metadata>
Created by potrace 1.16, written by Peter Selinger 2001-2019
</metadata>
<g transform="translate(0.000000,72.000000) scale(0.100000,-0.100000)"
fill="#000000" stroke="none">
<path d="M416 580 c-92 -29 -124 -150 -57 -214 15 -15 65 -45 112 -69 83 -42
84 -42 87 -83 4 -57 -20 -84 -81 -91 -41 -5 -103 5 -151 23 -13 5 -16 0 -16
-24 0 -39 35 -52 137 -52 132 0 188 46 180 147 -5 67 -23 87 -117 131 -95 44
-120 66 -120 108 0 53 40 77 115 71 33 -3 68 -7 79 -9 12 -2 21 5 27 20 7 19
4 24 -19 33 -37 15 -141 20 -176 9z"/>
<path d="M750 325 l0 -255 150 0 150 0 0 30 0 30 -120 0 -120 0 0 90 0 90 115
0 115 0 0 30 0 30 -115 0 -115 0 0 75 0 75 120 0 120 0 0 30 0 30 -150 0 -150
0 0 -255z"/>
<path d="M1192 558 c3 -20 10 -23 51 -26 l47 -3 0 -204 0 -204 -47 -3 c-41 -3
-48 -6 -51 -25 -3 -23 -3 -23 133 -23 136 0 136 0 133 23 -3 19 -10 22 -50 25
l-48 3 0 204 0 204 48 3 c40 3 47 6 50 26 3 22 3 22 -133 22 -136 0 -136 0
-133 -22z"/>
</g>
</svg>
