<?xml version="1.0" standalone="no"?>
<!DOCTYPE svg PUBLIC "-//W3C//DTD SVG 20010904//EN"
 "http://www.w3.org/TR/2001/REC-SVG-20010904/DTD/svg10.dtd">
<svg version="1.0" xmlns="http://www.w3.org/2000/svg"
 width="255.000000pt" height="72.000000pt" viewBox="0 0 255.000000 72.000000"
 preserveAspectRatio="xMidYMid meet">
<metadata>
Created by potrace 1.16, written by Peter Selinger 2001-2019
</metadata>
<g transform="translate(0.000000,72.000000) scale(0.100000,-0.100000)"
fill="#000000" stroke="none">
<path d="M320 325 l0 -255 100 0 c158 0 210 34 218 140 4 55 2 61 -26 90 -17
16 -38 30 -46 30 -24 0 -19 13 13 31 55 32 65 133 18 176 -32 30 -89 43 -189
43 l-88 0 0 -255z m220 175 c12 -12 20 -33 20 -55 0 -57 -27 -75 -110 -75
l-70 0 0 75 0 75 70 0 c57 0 74 -4 90 -20z m11 -217 c31 -31 31 -94 0 -127
-22 -23 -32 -26 -98 -26 l-73 0 0 91 0 91 75 -4 c60 -3 79 -8 96 -25z"/>
<path d="M690 325 l0 -255 30 0 30 0 0 105 0 105 43 0 42 0 60 -105 c59 -103
61 -104 97 -105 l37 0 -68 113 -67 112 30 20 c71 46 87 157 30 216 -36 37 -78
49 -181 49 l-83 0 0 -255z m204 174 c36 -29 37 -99 1 -134 -20 -21 -34 -25
-85 -25 l-60 0 0 90 0 90 59 0 c44 0 65 -5 85 -21z"/>
<path d="M1040 325 l0 -255 35 0 35 0 0 88 c1 78 3 90 25 115 13 15 26 27 28
27 3 0 37 -52 77 -115 68 -110 73 -115 106 -115 19 0 34 2 34 5 0 3 -35 60
-78 127 -43 68 -82 129 -86 136 -5 8 23 54 78 127 l86 115 -38 0 c-37 0 -40
-3 -135 -131 l-97 -131 0 131 0 131 -35 0 -35 0 0 -255z"/>
</g>
</svg>
