<?xml version="1.0" standalone="no"?>
<!DOCTYPE svg PUBLIC "-//W3C//DTD SVG 20010904//EN"
 "http://www.w3.org/TR/2001/REC-SVG-20010904/DTD/svg10.dtd">
<svg version="1.0" xmlns="http://www.w3.org/2000/svg"
 width="255.000000pt" height="72.000000pt" viewBox="0 0 255.000000 72.000000"
 preserveAspectRatio="xMidYMid meet">
<metadata>
Created by potrace 1.16, written by Peter Selinger 2001-2019
</metadata>
<g transform="translate(0.000000,72.000000) scale(0.100000,-0.100000)"
fill="#000000" stroke="none">
<path d="M332 558 c3 -20 10 -23 51 -26 l47 -3 0 -204 0 -204 -47 -3 c-41 -3
-48 -6 -51 -25 -3 -23 -3 -23 133 -23 136 0 136 0 133 23 -3 19 -10 22 -50 25
l-48 3 0 204 0 204 48 3 c40 3 47 6 50 26 3 22 3 22 -133 22 -136 0 -136 0
-133 -22z"/>
<path d="M730 325 l0 -255 30 0 31 0 -3 220 c-2 120 0 216 3 212 3 -4 47 -103
99 -220 l93 -212 39 0 38 0 0 255 0 255 -30 0 -30 0 0 -207 -1 -208 -91 208
-92 207 -43 0 -43 0 0 -255z"/>
<path d="M1153 573 c2 -5 34 -58 70 -119 37 -62 67 -116 67 -121 0 -5 -34 -64
-75 -132 -41 -67 -75 -124 -75 -127 0 -2 15 -4 33 -4 30 0 35 6 93 106 l61
105 62 -105 c56 -97 64 -106 91 -106 17 0 30 3 30 6 0 4 -34 61 -75 129 -41
67 -75 125 -75 128 0 3 32 58 70 122 39 64 70 118 70 120 0 3 -15 5 -32 5 -31
0 -36 -6 -78 -82 -69 -124 -59 -123 -120 -14 -51 92 -55 96 -87 96 -19 0 -32
-3 -30 -7z"/>
</g>
</svg>
