<?xml version="1.0" standalone="no"?>
<!DOCTYPE svg PUBLIC "-//W3C//DTD SVG 20010904//EN"
 "http://www.w3.org/TR/2001/REC-SVG-20010904/DTD/svg10.dtd">
<svg version="1.0" xmlns="http://www.w3.org/2000/svg"
 width="255.000000pt" height="72.000000pt" viewBox="0 0 255.000000 72.000000"
 preserveAspectRatio="xMidYMid meet">
<metadata>
Created by potrace 1.16, written by Peter Selinger 2001-2019
</metadata>
<g transform="translate(0.000000,72.000000) scale(0.100000,-0.100000)"
fill="#000000" stroke="none">
<path d="M332 558 c3 -20 10 -23 51 -26 l47 -3 0 -204 0 -204 -47 -3 c-41 -3
-48 -6 -51 -25 -3 -23 -3 -23 133 -23 136 0 136 0 133 23 -3 19 -10 22 -50 25
l-48 3 0 204 0 204 48 3 c40 3 47 6 50 26 3 22 3 22 -133 22 -136 0 -136 0
-133 -22z"/>
<path d="M730 325 l0 -255 30 0 31 0 -3 220 c-2 120 0 216 3 212 3 -4 47 -103
99 -220 l93 -212 39 0 38 0 0 255 0 255 -30 0 -30 0 0 -207 -1 -208 -91 208
-92 207 -43 0 -43 0 0 -255z"/>
<path d="M1140 573 c0 -3 34 -70 75 -149 l75 -143 0 -105 0 -106 35 0 35 0 0
100 0 100 75 150 c41 82 75 152 75 155 0 3 -14 5 -31 5 -29 0 -33 -5 -91 -127
l-61 -128 -60 128 c-60 125 -61 127 -94 127 -18 0 -33 -3 -33 -7z"/>
</g>
</svg>
