<?xml version="1.0" standalone="no"?>
<!DOCTYPE svg PUBLIC "-//W3C//DTD SVG 20010904//EN"
 "http://www.w3.org/TR/2001/REC-SVG-20010904/DTD/svg10.dtd">
<svg version="1.0" xmlns="http://www.w3.org/2000/svg"
 width="255.000000pt" height="72.000000pt" viewBox="0 0 255.000000 72.000000"
 preserveAspectRatio="xMidYMid meet">
<metadata>
Created by potrace 1.16, written by Peter Selinger 2001-2019
</metadata>
<g transform="translate(0.000000,72.000000) scale(0.100000,-0.100000)"
fill="#000000" stroke="none">
<path d="M280 550 l0 -30 75 0 75 0 0 -225 0 -225 35 0 35 0 0 225 0 225 75 0
75 0 0 30 0 30 -185 0 -185 0 0 -30z"/>
<path d="M663 573 c2 -5 34 -58 70 -119 37 -62 67 -116 67 -121 0 -5 -34 -64
-75 -132 -41 -67 -75 -124 -75 -127 0 -2 15 -4 33 -4 30 0 35 6 93 106 l61
105 62 -105 61 -106 54 0 54 0 25 73 24 72 88 0 88 0 25 -72 c23 -71 24 -73
57 -73 l33 0 -85 255 -85 255 -34 0 -34 0 -77 -239 c-43 -132 -80 -238 -84
-235 -8 4 -139 219 -139 227 0 3 32 58 70 122 39 64 70 118 70 120 0 3 -15 5
-32 5 -31 0 -36 -6 -78 -82 -69 -124 -59 -123 -120 -14 -51 92 -55 96 -87 96
-19 0 -32 -3 -30 -7z m607 -285 c0 -5 -30 -8 -66 -8 -58 0 -66 2 -61 18 2 9
17 59 33 111 l29 95 32 -105 c18 -57 33 -107 33 -111z"/>
</g>
</svg>
