<?xml version="1.0" standalone="no"?>
<!DOCTYPE svg PUBLIC "-//W3C//DTD SVG 20010904//EN"
 "http://www.w3.org/TR/2001/REC-SVG-20010904/DTD/svg10.dtd">
<svg version="1.0" xmlns="http://www.w3.org/2000/svg"
 width="255.000000pt" height="72.000000pt" viewBox="0 0 255.000000 72.000000"
 preserveAspectRatio="xMidYMid meet">
<metadata>
Created by potrace 1.16, written by Peter Selinger 2001-2019
</metadata>
<g transform="translate(0.000000,72.000000) scale(0.100000,-0.100000)"
fill="#000000" stroke="none">
<path d="M1156 580 c-92 -29 -124 -150 -57 -214 15 -15 65 -45 112 -69 83 -42
84 -42 87 -83 4 -57 -20 -84 -81 -91 -41 -5 -103 5 -151 23 -13 5 -16 0 -16
-24 0 -39 35 -52 137 -52 132 0 188 46 180 147 -5 67 -23 87 -117 131 -95 44
-120 66 -120 108 0 53 40 77 115 71 33 -3 68 -7 79 -9 12 -2 21 5 27 20 7 19
4 24 -19 33 -37 15 -141 20 -176 9z"/>
<path d="M280 550 l0 -30 75 0 75 0 0 -225 0 -225 35 0 35 0 0 225 0 225 75 0
75 0 0 30 0 30 -185 0 -185 0 0 -30z"/>
<path d="M663 573 c2 -5 34 -58 70 -119 37 -62 67 -116 67 -121 0 -5 -34 -64
-75 -132 -41 -67 -75 -124 -75 -127 0 -2 15 -4 33 -4 30 0 35 6 93 106 l61
105 62 -105 c56 -97 64 -106 91 -106 17 0 30 3 30 6 0 4 -34 61 -75 129 -41
67 -75 125 -75 128 0 3 32 58 70 122 39 64 70 118 70 120 0 3 -15 5 -32 5 -31
0 -36 -6 -78 -82 -69 -124 -59 -123 -120 -14 -51 92 -55 96 -87 96 -19 0 -32
-3 -30 -7z"/>
</g>
</svg>
