<?xml version="1.0" standalone="no"?>
<!DOCTYPE svg PUBLIC "-//W3C//DTD SVG 20010904//EN"
 "http://www.w3.org/TR/2001/REC-SVG-20010904/DTD/svg10.dtd">
<svg version="1.0" xmlns="http://www.w3.org/2000/svg"
 width="255.000000pt" height="72.000000pt" viewBox="0 0 255.000000 72.000000"
 preserveAspectRatio="xMidYMid meet">
<metadata>
Created by potrace 1.16, written by Peter Selinger 2001-2019
</metadata>
<g transform="translate(0.000000,72.000000) scale(0.100000,-0.100000)"
fill="#000000" stroke="none">
<path d="M300 324 l0 -256 98 4 c112 4 164 27 206 87 69 100 57 285 -23 361
-47 45 -97 60 -200 60 l-81 0 0 -256z m207 176 c53 -32 67 -63 71 -159 3 -75
0 -92 -20 -131 -28 -54 -73 -80 -140 -80 l-48 0 0 195 0 195 53 0 c34 0 63 -7
84 -20z"/>
<path d="M690 325 l0 -255 150 0 150 0 0 30 0 30 -120 0 -120 0 0 90 0 90 115
0 115 0 0 30 0 30 -115 0 -115 0 0 75 0 75 120 0 120 0 0 30 0 30 -150 0 -150
0 0 -255z"/>
<path d="M1033 573 c2 -5 34 -58 70 -119 37 -62 67 -116 67 -121 0 -5 -34 -64
-75 -132 -41 -67 -75 -124 -75 -127 0 -2 15 -4 33 -4 30 0 35 6 93 106 l61
105 62 -105 c56 -97 64 -106 91 -106 17 0 30 3 30 6 0 4 -34 61 -75 129 -41
67 -75 125 -75 128 0 3 32 58 70 122 39 64 70 118 70 120 0 3 -15 5 -32 5 -31
0 -36 -6 -78 -82 -69 -124 -59 -123 -120 -14 -51 92 -55 96 -87 96 -19 0 -32
-3 -30 -7z"/>
</g>
</svg>
