<?xml version="1.0" standalone="no"?>
<!DOCTYPE svg PUBLIC "-//W3C//DTD SVG 20010904//EN"
 "http://www.w3.org/TR/2001/REC-SVG-20010904/DTD/svg10.dtd">
<svg version="1.0" xmlns="http://www.w3.org/2000/svg"
 width="425.000000pt" height="72.000000pt" viewBox="0 0 425.000000 72.000000"
 preserveAspectRatio="xMidYMid meet">
<metadata>
Created by potrace 1.16, written by Peter Selinger 2001-2019
</metadata>
<g transform="translate(0.000000,72.000000) scale(0.100000,-0.100000)"
fill="#000000" stroke="none">
<path d="M1922 539 l4 -61 -30 5 c-17 3 -46 9 -63 13 -30 6 -33 4 -33 -18 0
-20 6 -27 31 -32 17 -3 43 -6 56 -6 25 0 25 0 -12 -51 -36 -48 -37 -51 -19
-64 28 -21 31 -19 59 35 14 28 27 50 30 50 3 0 16 -22 30 -50 14 -27 29 -50
33 -50 4 0 18 7 30 16 l22 15 -35 43 c-19 24 -35 45 -35 48 0 3 23 8 50 10 28
3 52 7 54 9 2 2 2 16 -1 31 l-5 26 -47 -14 c-71 -21 -71 -21 -71 46 0 58 -1
60 -26 60 -26 0 -26 -1 -22 -61z"/>
<path d="M320 325 l0 -255 100 0 c158 0 210 34 218 140 4 55 2 61 -26 90 -17
16 -38 30 -46 30 -24 0 -19 13 13 31 55 32 65 133 18 176 -32 30 -89 43 -189
43 l-88 0 0 -255z m220 175 c12 -12 20 -33 20 -55 0 -57 -27 -75 -110 -75
l-70 0 0 75 0 75 70 0 c57 0 74 -4 90 -20z m11 -217 c31 -31 31 -94 0 -127
-22 -23 -32 -26 -98 -26 l-73 0 0 91 0 91 75 -4 c60 -3 79 -8 96 -25z"/>
<path d="M670 325 l0 -255 30 0 31 0 -3 220 c-2 120 0 216 3 212 3 -4 47 -103
99 -220 l93 -212 39 0 38 0 0 255 0 255 -30 0 -30 0 0 -207 -1 -208 -91 208
-92 207 -43 0 -43 0 0 -255z"/>
<path d="M1060 325 l0 -255 150 0 150 0 0 30 0 30 -120 0 -120 0 0 90 0 90
115 0 115 0 0 30 0 30 -115 0 -115 0 0 75 0 75 120 0 120 0 0 30 0 30 -150 0
-150 0 0 -255z"/>
</g>
</svg>
