<?xml version="1.0" standalone="no"?>
<!DOCTYPE svg PUBLIC "-//W3C//DTD SVG 20010904//EN"
 "http://www.w3.org/TR/2001/REC-SVG-20010904/DTD/svg10.dtd">
<svg version="1.0" xmlns="http://www.w3.org/2000/svg"
 width="255.000000pt" height="72.000000pt" viewBox="0 0 255.000000 72.000000"
 preserveAspectRatio="xMidYMid meet">
<metadata>
Created by potrace 1.16, written by Peter Selinger 2001-2019
</metadata>
<g transform="translate(0.000000,72.000000) scale(0.100000,-0.100000)"
fill="#000000" stroke="none">
<path d="M320 325 l0 -255 30 0 30 0 0 105 0 105 43 0 42 0 60 -105 c59 -103
61 -104 97 -105 l37 0 -68 113 -67 112 30 20 c71 46 87 157 30 216 -36 37 -78
49 -181 49 l-83 0 0 -255z m204 174 c36 -29 37 -99 1 -134 -20 -21 -34 -25
-85 -25 l-60 0 0 90 0 90 59 0 c44 0 65 -5 85 -21z"/>
<path d="M650 550 l0 -30 75 0 75 0 0 -225 0 -225 35 0 35 0 0 225 0 225 75 0
75 0 0 30 0 30 -185 0 -185 0 0 -30z"/>
<path d="M1072 558 c3 -20 10 -23 51 -26 l47 -3 0 -204 0 -204 -47 -3 c-41 -3
-48 -6 -51 -25 -3 -23 -3 -23 133 -23 136 0 136 0 133 23 -3 19 -10 22 -50 25
l-48 3 0 204 0 204 48 3 c40 3 47 6 50 26 3 22 3 22 -133 22 -136 0 -136 0
-133 -22z"/>
</g>
</svg>
