<?xml version="1.0" standalone="no"?>
<!DOCTYPE svg PUBLIC "-//W3C//DTD SVG 20010904//EN"
 "http://www.w3.org/TR/2001/REC-SVG-20010904/DTD/svg10.dtd">
<svg version="1.0" xmlns="http://www.w3.org/2000/svg"
 width="255.000000pt" height="72.000000pt" viewBox="0 0 255.000000 72.000000"
 preserveAspectRatio="xMidYMid meet">
<metadata>
Created by potrace 1.16, written by Peter Selinger 2001-2019
</metadata>
<g transform="translate(0.000000,72.000000) scale(0.100000,-0.100000)"
fill="#000000" stroke="none">
<path d="M320 326 l0 -256 30 0 30 0 0 94 0 93 79 7 c57 5 89 14 113 29 88 59
92 211 5 262 -25 16 -56 20 -144 23 l-113 4 0 -256z m226 171 c23 -20 27 -32
27 -71 0 -38 -5 -53 -26 -74 -23 -22 -37 -27 -97 -30 l-70 -4 0 101 0 101 69
0 c59 0 74 -4 97 -23z"/>
<path d="M670 325 l0 -255 35 0 35 0 0 120 0 120 100 0 100 0 0 -120 0 -120
30 0 30 0 0 255 0 255 -30 0 -30 0 0 -105 0 -105 -100 0 -100 0 0 105 0 105
-35 0 -35 0 0 -255z"/>
<path d="M1090 333 c-44 -136 -80 -251 -80 -255 0 -4 13 -8 29 -8 27 0 31 5
54 73 l24 72 88 0 88 0 25 -72 c23 -71 24 -73 57 -73 l33 0 -85 255 -85 255
-34 0 -33 0 -81 -247z m180 -45 c0 -5 -30 -8 -66 -8 -58 0 -66 2 -61 18 2 9
17 59 33 111 l29 95 32 -105 c18 -57 33 -107 33 -111z"/>
</g>
</svg>
