<?xml version="1.0" standalone="no"?>
<!DOCTYPE svg PUBLIC "-//W3C//DTD SVG 20010904//EN"
 "http://www.w3.org/TR/2001/REC-SVG-20010904/DTD/svg10.dtd">
<svg version="1.0" xmlns="http://www.w3.org/2000/svg"
 width="510.000000pt" height="72.000000pt" viewBox="0 0 510.000000 72.000000"
 preserveAspectRatio="xMidYMid meet">
<metadata>
Created by potrace 1.16, written by Peter Selinger 2001-2019
</metadata>
<g transform="translate(0.000000,72.000000) scale(0.100000,-0.100000)"
fill="#000000" stroke="none">
<path d="M2290 585 c0 -20 -7 -26 -39 -35 -56 -15 -91 -60 -91 -115 0 -53 32
-96 90 -119 l40 -16 0 -76 0 -77 -42 6 c-24 3 -53 9 -65 13 -20 5 -23 3 -23
-19 0 -31 22 -45 85 -53 43 -7 45 -8 45 -41 0 -30 3 -34 23 -31 16 2 23 11 27
36 4 29 11 36 45 48 58 19 85 55 85 112 0 60 -17 84 -80 111 l-50 22 0 74 c0
82 5 88 66 65 29 -12 44 -1 44 32 0 12 -15 20 -55 28 -48 10 -55 14 -55 36 0
19 -5 24 -25 24 -20 0 -25 -5 -25 -25z m0 -150 c0 -51 -3 -65 -15 -65 -23 0
-55 37 -55 65 0 28 32 65 55 65 12 0 15 -14 15 -65z m98 -171 c40 -28 24 -94
-25 -109 -22 -6 -23 -4 -23 59 0 71 7 79 48 50z"/>
<path d="M320 325 l0 -255 100 0 c158 0 210 34 218 140 4 55 2 61 -26 90 -17
16 -38 30 -46 30 -24 0 -19 13 13 31 55 32 65 133 18 176 -32 30 -89 43 -189
43 l-88 0 0 -255z m220 175 c12 -12 20 -33 20 -55 0 -57 -27 -75 -110 -75
l-70 0 0 75 0 75 70 0 c57 0 74 -4 90 -20z m11 -217 c31 -31 31 -94 0 -127
-22 -23 -32 -26 -98 -26 l-73 0 0 91 0 91 75 -4 c60 -3 79 -8 96 -25z"/>
<path d="M702 558 c3 -20 10 -23 51 -26 l47 -3 0 -204 0 -204 -47 -3 c-41 -3
-48 -6 -51 -25 -3 -23 -3 -23 133 -23 136 0 136 0 133 23 -3 19 -10 22 -50 25
l-48 3 0 204 0 204 48 3 c40 3 47 6 50 26 3 22 3 22 -133 22 -136 0 -136 0
-133 -22z"/>
<path d="M1020 550 l0 -30 75 0 75 0 0 -225 0 -225 35 0 35 0 0 225 0 225 75
0 75 0 0 30 0 30 -185 0 -185 0 0 -30z"/>
<path d="M1945 421 c-127 -72 -168 -102 -155 -114 11 -10 290 -147 300 -147 5
0 10 10 10 23 0 20 -17 31 -114 78 -63 30 -115 56 -115 59 -1 3 50 33 112 66
94 52 113 66 115 88 2 14 0 26 -5 26 -4 -1 -71 -36 -148 -79z"/>
</g>
</svg>
