<?xml version="1.0" standalone="no"?>
<!DOCTYPE svg PUBLIC "-//W3C//DTD SVG 20010904//EN"
 "http://www.w3.org/TR/2001/REC-SVG-20010904/DTD/svg10.dtd">
<svg version="1.0" xmlns="http://www.w3.org/2000/svg"
 width="170.000000pt" height="72.000000pt" viewBox="0 0 170.000000 72.000000"
 preserveAspectRatio="xMidYMid meet">
<metadata>
Created by potrace 1.16, written by Peter Selinger 2001-2019
</metadata>
<g transform="translate(0.000000,72.000000) scale(0.100000,-0.100000)"
fill="#000000" stroke="none">
<path d="M723 573 c2 -5 34 -58 70 -119 37 -62 67 -116 67 -121 0 -5 -34 -64
-75 -132 -41 -67 -75 -124 -75 -127 0 -2 15 -4 33 -4 30 0 35 6 93 106 l61
105 62 -105 c56 -97 64 -106 91 -106 17 0 30 3 30 6 0 4 -34 61 -75 129 -41
67 -75 125 -75 128 0 3 32 58 70 122 39 64 70 118 70 120 0 3 -15 5 -32 5 -31
0 -36 -6 -78 -82 -69 -124 -59 -123 -120 -14 -51 92 -55 96 -87 96 -19 0 -32
-3 -30 -7z"/>
<path d="M435 123 c-4 -21 -11 -54 -16 -73 -13 -49 -12 -50 20 -50 26 0 31 6
55 65 35 89 34 95 -14 95 -37 0 -39 -2 -45 -37z"/>
</g>
</svg>
