<?xml version="1.0" standalone="no"?>
<!DOCTYPE svg PUBLIC "-//W3C//DTD SVG 20010904//EN"
 "http://www.w3.org/TR/2001/REC-SVG-20010904/DTD/svg10.dtd">
<svg version="1.0" xmlns="http://www.w3.org/2000/svg"
 width="255.000000pt" height="72.000000pt" viewBox="0 0 255.000000 72.000000"
 preserveAspectRatio="xMidYMid meet">
<metadata>
Created by potrace 1.16, written by Peter Selinger 2001-2019
</metadata>
<g transform="translate(0.000000,72.000000) scale(0.100000,-0.100000)"
fill="#000000" stroke="none">
<path d="M382 582 c2 -4 16 -33 31 -63 40 -80 57 -152 57 -244 0 -88 -18 -173
-50 -236 l-21 -40 33 3 c28 3 36 10 56 49 34 68 55 182 48 260 -13 142 -78
279 -132 279 -14 0 -24 -3 -22 -8z"/>
<path d="M1020 573 c0 -3 34 -70 75 -149 l75 -143 0 -105 0 -106 35 0 35 0 0
100 0 100 75 150 c41 82 75 152 75 155 0 3 -14 5 -31 5 -29 0 -33 -5 -91 -127
l-61 -128 -60 128 c-60 125 -61 127 -94 127 -18 0 -33 -3 -33 -7z"/>
<path d="M805 123 c-4 -21 -11 -54 -16 -73 -13 -49 -12 -50 20 -50 26 0 31 6
55 65 35 89 34 95 -14 95 -37 0 -39 -2 -45 -37z"/>
</g>
</svg>
