<?xml version="1.0" standalone="no"?>
<!DOCTYPE svg PUBLIC "-//W3C//DTD SVG 20010904//EN"
 "http://www.w3.org/TR/2001/REC-SVG-20010904/DTD/svg10.dtd">
<svg version="1.0" xmlns="http://www.w3.org/2000/svg"
 width="425.000000pt" height="72.000000pt" viewBox="0 0 425.000000 72.000000"
 preserveAspectRatio="xMidYMid meet">
<metadata>
Created by potrace 1.16, written by Peter Selinger 2001-2019
</metadata>
<g transform="translate(0.000000,72.000000) scale(0.100000,-0.100000)"
fill="#000000" stroke="none">
<path d="M1922 539 l4 -61 -30 5 c-17 3 -46 9 -63 13 -30 6 -33 4 -33 -18 0
-20 6 -27 31 -32 17 -3 43 -6 56 -6 25 0 25 0 -12 -51 -36 -48 -37 -51 -19
-64 28 -21 31 -19 59 35 14 28 27 50 30 50 3 0 16 -22 30 -50 14 -27 29 -50
33 -50 4 0 18 7 30 16 l22 15 -35 43 c-19 24 -35 45 -35 48 0 3 23 8 50 10 28
3 52 7 54 9 2 2 2 16 -1 31 l-5 26 -47 -14 c-71 -21 -71 -21 -71 46 0 58 -1
60 -26 60 -26 0 -26 -1 -22 -61z"/>
<path d="M1156 580 c-92 -29 -124 -150 -57 -214 15 -15 65 -45 112 -69 83 -42
84 -42 87 -83 4 -57 -20 -84 -81 -91 -41 -5 -103 5 -151 23 -13 5 -16 0 -16
-24 0 -39 35 -52 137 -52 132 0 188 46 180 147 -5 67 -23 87 -117 131 -95 44
-120 66 -120 108 0 53 40 77 115 71 33 -3 68 -7 79 -9 12 -2 21 5 27 20 7 19
4 24 -19 33 -37 15 -141 20 -176 9z"/>
<path d="M320 325 l0 -255 100 0 c158 0 210 34 218 140 4 55 2 61 -26 90 -17
16 -38 30 -46 30 -24 0 -19 13 13 31 55 32 65 133 18 176 -32 30 -89 43 -189
43 l-88 0 0 -255z m220 175 c12 -12 20 -33 20 -55 0 -57 -27 -75 -110 -75
l-70 0 0 75 0 75 70 0 c57 0 74 -4 90 -20z m11 -217 c31 -31 31 -94 0 -127
-22 -23 -32 -26 -98 -26 l-73 0 0 91 0 91 75 -4 c60 -3 79 -8 96 -25z"/>
<path d="M642 568 c3 -7 40 -122 83 -256 l79 -243 35 3 34 3 78 245 c43 135
79 248 79 253 0 4 -15 7 -32 7 l-33 0 -53 -183 c-29 -100 -58 -200 -64 -222
l-10 -39 -32 109 c-18 61 -48 161 -66 223 l-33 112 -35 0 c-23 0 -33 -4 -30
-12z"/>
</g>
</svg>
