<?xml version="1.0" standalone="no"?>
<!DOCTYPE svg PUBLIC "-//W3C//DTD SVG 20010904//EN"
 "http://www.w3.org/TR/2001/REC-SVG-20010904/DTD/svg10.dtd">
<svg version="1.0" xmlns="http://www.w3.org/2000/svg"
 width="255.000000pt" height="72.000000pt" viewBox="0 0 255.000000 72.000000"
 preserveAspectRatio="xMidYMid meet">
<metadata>
Created by potrace 1.16, written by Peter Selinger 2001-2019
</metadata>
<g transform="translate(0.000000,72.000000) scale(0.100000,-0.100000)"
fill="#000000" stroke="none">
<path d="M437 575 c-48 -17 -82 -48 -110 -100 -32 -58 -32 -229 -1 -296 32
-69 82 -102 160 -107 35 -2 79 -1 99 2 31 6 35 11 35 37 0 29 -1 30 -37 22
-146 -28 -216 32 -217 186 0 95 15 141 60 181 30 25 43 30 89 30 29 0 65 -4
79 -10 21 -8 27 -6 36 11 14 26 7 36 -38 49 -50 14 -109 12 -155 -5z"/>
<path d="M700 325 l0 -255 145 0 145 0 0 30 0 30 -110 0 -110 0 0 225 0 225
-35 0 -35 0 0 -255z"/>
<path d="M1012 568 c3 -7 40 -122 83 -256 l79 -243 35 3 34 3 78 245 c43 135
79 248 79 253 0 4 -15 7 -32 7 l-33 0 -53 -183 c-29 -100 -58 -200 -64 -222
l-10 -39 -32 109 c-18 61 -48 161 -66 223 l-33 112 -35 0 c-23 0 -33 -4 -30
-12z"/>
</g>
</svg>
