<?xml version="1.0" standalone="no"?>
<!DOCTYPE svg PUBLIC "-//W3C//DTD SVG 20010904//EN"
 "http://www.w3.org/TR/2001/REC-SVG-20010904/DTD/svg10.dtd">
<svg version="1.0" xmlns="http://www.w3.org/2000/svg"
 width="510.000000pt" height="72.000000pt" viewBox="0 0 510.000000 72.000000"
 preserveAspectRatio="xMidYMid meet">
<metadata>
Created by potrace 1.16, written by Peter Selinger 2001-2019
</metadata>
<g transform="translate(0.000000,72.000000) scale(0.100000,-0.100000)"
fill="#000000" stroke="none">
<path d="M2290 585 c0 -20 -7 -26 -39 -35 -56 -15 -91 -60 -91 -115 0 -53 32
-96 90 -119 l40 -16 0 -76 0 -77 -42 6 c-24 3 -53 9 -65 13 -20 5 -23 3 -23
-19 0 -31 22 -45 85 -53 43 -7 45 -8 45 -41 0 -30 3 -34 23 -31 16 2 23 11 27
36 4 29 11 36 45 48 58 19 85 55 85 112 0 60 -17 84 -80 111 l-50 22 0 74 c0
82 5 88 66 65 29 -12 44 -1 44 32 0 12 -15 20 -55 28 -48 10 -55 14 -55 36 0
19 -5 24 -25 24 -20 0 -25 -5 -25 -25z m0 -150 c0 -51 -3 -65 -15 -65 -23 0
-55 37 -55 65 0 28 32 65 55 65 12 0 15 -14 15 -65z m98 -171 c40 -28 24 -94
-25 -109 -22 -6 -23 -4 -23 59 0 71 7 79 48 50z"/>
<path d="M330 325 l0 -255 145 0 145 0 0 30 0 30 -110 0 -110 0 0 225 0 225
-35 0 -35 0 0 -255z"/>
<path d="M670 324 l0 -256 98 4 c112 4 164 27 206 87 69 100 57 285 -23 361
-47 45 -97 60 -200 60 l-81 0 0 -256z m207 176 c53 -32 67 -63 71 -159 3 -75
0 -92 -20 -131 -28 -54 -73 -80 -140 -80 l-48 0 0 195 0 195 53 0 c34 0 63 -7
84 -20z"/>
<path d="M1020 573 c0 -3 34 -70 75 -149 l75 -143 0 -105 0 -106 35 0 35 0 0
100 0 100 75 150 c41 82 75 152 75 155 0 3 -14 5 -31 5 -29 0 -33 -5 -91 -127
l-61 -128 -60 128 c-60 125 -61 127 -94 127 -18 0 -33 -3 -33 -7z"/>
<path d="M1890 523 c-19 -97 -16 -93 -71 -93 -46 0 -49 -2 -49 -25 0 -23 4
-25 45 -25 25 0 45 -2 45 -5 0 -2 -5 -27 -11 -54 l-10 -50 -47 -3 c-40 -3 -47
-6 -50 -26 -3 -20 1 -22 42 -22 25 0 46 -1 46 -2 0 -2 -6 -36 -14 -76 l-14
-73 26 3 c27 3 28 4 46 111 7 36 8 37 52 37 38 0 45 -3 40 -17 -3 -10 -8 -36
-11 -58 -4 -22 -9 -48 -12 -57 -3 -14 2 -18 21 -18 27 0 28 3 46 93 l11 57 50
0 c46 0 49 2 49 25 0 23 -4 25 -46 25 -38 0 -45 3 -40 18 3 9 8 34 12 55 6 37
6 37 55 37 46 0 49 2 49 25 0 23 -4 25 -45 25 -42 0 -45 2 -40 23 30 134 30
127 1 127 -25 0 -31 -17 -48 -125 -3 -16 -12 -21 -50 -23 l-46 -3 8 38 c23
110 23 113 -4 113 -22 0 -26 -6 -36 -57z m110 -148 c0 -2 -5 -27 -11 -55 l-11
-50 -45 0 c-38 0 -44 3 -39 18 3 9 8 34 12 55 6 36 7 37 50 37 24 0 44 -2 44
-5z"/>
</g>
</svg>
