<?xml version="1.0" standalone="no"?>
<!DOCTYPE svg PUBLIC "-//W3C//DTD SVG 20010904//EN"
 "http://www.w3.org/TR/2001/REC-SVG-20010904/DTD/svg10.dtd">
<svg version="1.0" xmlns="http://www.w3.org/2000/svg"
 width="425.000000pt" height="72.000000pt" viewBox="0 0 425.000000 72.000000"
 preserveAspectRatio="xMidYMid meet">
<metadata>
Created by potrace 1.16, written by Peter Selinger 2001-2019
</metadata>
<g transform="translate(0.000000,72.000000) scale(0.100000,-0.100000)"
fill="#000000" stroke="none">
<path d="M2160 585 c0 -20 -7 -26 -39 -35 -56 -15 -91 -60 -91 -115 0 -53 32
-96 90 -119 l40 -16 0 -76 0 -77 -42 6 c-24 3 -53 9 -65 13 -20 5 -23 3 -23
-19 0 -31 22 -45 85 -53 43 -7 45 -8 45 -41 0 -30 3 -34 23 -31 16 2 23 11 27
36 4 29 11 36 45 48 58 19 85 55 85 112 0 60 -17 84 -80 111 l-50 22 0 74 c0
82 5 88 66 65 29 -12 44 -1 44 32 0 12 -15 20 -55 28 -48 10 -55 14 -55 36 0
19 -5 24 -25 24 -20 0 -25 -5 -25 -25z m0 -150 c0 -51 -3 -65 -15 -65 -23 0
-55 37 -55 65 0 28 32 65 55 65 12 0 15 -14 15 -65z m98 -171 c40 -28 24 -94
-25 -109 -22 -6 -23 -4 -23 59 0 71 7 79 48 50z"/>
<path d="M1297 575 c-48 -17 -82 -48 -110 -100 -32 -58 -32 -229 -1 -296 32
-69 82 -102 160 -107 35 -2 79 -1 99 2 31 6 35 11 35 37 0 29 -1 30 -37 22
-146 -28 -216 32 -217 186 0 95 15 141 60 181 30 25 43 30 89 30 29 0 65 -4
79 -10 21 -8 27 -6 36 11 14 26 7 36 -38 49 -50 14 -109 12 -155 -5z"/>
<path d="M332 558 c3 -20 10 -23 51 -26 l47 -3 0 -204 0 -204 -47 -3 c-41 -3
-48 -6 -51 -25 -3 -23 -3 -23 133 -23 136 0 136 0 133 23 -3 19 -10 22 -50 25
l-48 3 0 204 0 204 48 3 c40 3 47 6 50 26 3 22 3 22 -133 22 -136 0 -136 0
-133 -22z"/>
<path d="M730 325 l0 -255 30 0 31 0 -3 220 c-2 120 0 216 3 212 3 -4 47 -103
99 -220 l93 -212 39 0 38 0 0 255 0 255 -30 0 -30 0 0 -207 -1 -208 -91 208
-92 207 -43 0 -43 0 0 -255z"/>
</g>
</svg>
