<?xml version="1.0" standalone="no"?>
<!DOCTYPE svg PUBLIC "-//W3C//DTD SVG 20010904//EN"
 "http://www.w3.org/TR/2001/REC-SVG-20010904/DTD/svg10.dtd">
<svg version="1.0" xmlns="http://www.w3.org/2000/svg"
 width="255.000000pt" height="72.000000pt" viewBox="0 0 255.000000 72.000000"
 preserveAspectRatio="xMidYMid meet">
<metadata>
Created by potrace 1.16, written by Peter Selinger 2001-2019
</metadata>
<g transform="translate(0.000000,72.000000) scale(0.100000,-0.100000)"
fill="#000000" stroke="none">
<path d="M1276 580 c-92 -29 -124 -150 -57 -214 15 -15 65 -45 112 -69 83 -42
84 -42 87 -83 4 -57 -20 -84 -81 -91 -41 -5 -103 5 -151 23 -13 5 -16 0 -16
-24 0 -39 35 -52 137 -52 132 0 188 46 180 147 -5 67 -23 87 -117 131 -95 44
-120 66 -120 108 0 53 40 77 115 71 33 -3 68 -7 79 -9 12 -2 21 5 27 20 7 19
4 24 -19 33 -37 15 -141 20 -176 9z"/>
<path d="M320 325 l0 -255 30 0 30 0 0 105 0 105 43 0 42 0 60 -105 c59 -103
61 -104 97 -105 l37 0 -68 113 -67 112 30 20 c71 46 87 157 30 216 -36 37 -78
49 -181 49 l-83 0 0 -255z m204 174 c36 -29 37 -99 1 -134 -20 -21 -34 -25
-85 -25 l-60 0 0 90 0 90 59 0 c44 0 65 -5 85 -21z"/>
<path d="M710 550 l0 -30 75 0 75 0 0 -225 0 -225 35 0 35 0 0 225 0 225 75 0
75 0 0 30 0 30 -185 0 -185 0 0 -30z"/>
</g>
</svg>
