<?xml version="1.0" standalone="no"?>
<!DOCTYPE svg PUBLIC "-//W3C//DTD SVG 20010904//EN"
 "http://www.w3.org/TR/2001/REC-SVG-20010904/DTD/svg10.dtd">
<svg version="1.0" xmlns="http://www.w3.org/2000/svg"
 width="255.000000pt" height="72.000000pt" viewBox="0 0 255.000000 72.000000"
 preserveAspectRatio="xMidYMid meet">
<metadata>
Created by potrace 1.16, written by Peter Selinger 2001-2019
</metadata>
<g transform="translate(0.000000,72.000000) scale(0.100000,-0.100000)"
fill="#000000" stroke="none">
<path d="M830 579 c-77 -31 -115 -115 -115 -259 0 -84 4 -102 28 -152 36 -73
74 -98 151 -98 99 0 143 39 172 151 29 114 7 257 -49 318 -43 46 -126 64 -187
40z m135 -73 c31 -32 45 -85 45 -180 0 -142 -34 -201 -117 -201 -36 0 -49 5
-68 28 -32 36 -45 87 -45 170 0 141 37 207 117 207 33 0 50 -6 68 -24z"/>
<path d="M300 325 l0 -255 30 0 31 0 -3 220 c-2 120 0 216 3 212 3 -4 47 -103
99 -220 l93 -212 39 0 38 0 0 255 0 255 -30 0 -30 0 0 -207 -1 -208 -91 208
-92 207 -43 0 -43 0 0 -255z"/>
<path d="M1180 326 l0 -256 30 0 30 0 0 94 0 93 79 7 c57 5 89 14 113 29 88
59 92 211 5 262 -25 16 -56 20 -144 23 l-113 4 0 -256z m226 171 c23 -20 27
-32 27 -71 0 -38 -5 -53 -26 -74 -23 -22 -37 -27 -97 -30 l-70 -4 0 101 0 101
69 0 c59 0 74 -4 97 -23z"/>
</g>
</svg>
