<?xml version="1.0" standalone="no"?>
<!DOCTYPE svg PUBLIC "-//W3C//DTD SVG 20010904//EN"
 "http://www.w3.org/TR/2001/REC-SVG-20010904/DTD/svg10.dtd">
<svg version="1.0" xmlns="http://www.w3.org/2000/svg"
 width="255.000000pt" height="72.000000pt" viewBox="0 0 255.000000 72.000000"
 preserveAspectRatio="xMidYMid meet">
<metadata>
Created by potrace 1.16, written by Peter Selinger 2001-2019
</metadata>
<g transform="translate(0.000000,72.000000) scale(0.100000,-0.100000)"
fill="#000000" stroke="none">
<path d="M280 550 l0 -30 75 0 75 0 0 -225 0 -225 35 0 35 0 0 225 0 225 75 0
75 0 0 30 0 30 -185 0 -185 0 0 -30z"/>
<path d="M720 333 c-44 -136 -80 -251 -80 -255 0 -4 13 -8 29 -8 27 0 31 5 54
73 l24 72 88 0 88 0 25 -72 c23 -71 24 -73 57 -73 l33 0 -85 255 -85 255 -34
0 -33 0 -81 -247z m180 -45 c0 -5 -30 -8 -66 -8 -58 0 -66 2 -61 18 2 9 17 59
33 111 l29 95 32 -105 c18 -57 33 -107 33 -111z"/>
<path d="M1020 573 c0 -3 34 -70 75 -149 l75 -143 0 -105 0 -106 35 0 35 0 0
100 0 100 75 150 c41 82 75 152 75 155 0 3 -14 5 -31 5 -29 0 -33 -5 -91 -127
l-61 -128 -60 128 c-60 125 -61 127 -94 127 -18 0 -33 -3 -33 -7z"/>
</g>
</svg>
