<?xml version="1.0" standalone="no"?>
<!DOCTYPE svg PUBLIC "-//W3C//DTD SVG 20010904//EN"
 "http://www.w3.org/TR/2001/REC-SVG-20010904/DTD/svg10.dtd">
<svg version="1.0" xmlns="http://www.w3.org/2000/svg"
 width="255.000000pt" height="72.000000pt" viewBox="0 0 255.000000 72.000000"
 preserveAspectRatio="xMidYMid meet">
<metadata>
Created by potrace 1.16, written by Peter Selinger 2001-2019
</metadata>
<g transform="translate(0.000000,72.000000) scale(0.100000,-0.100000)"
fill="#000000" stroke="none">
<path d="M437 575 c-48 -17 -82 -48 -110 -100 -32 -58 -32 -229 -1 -296 32
-69 82 -102 160 -107 35 -2 79 -1 99 2 31 6 35 11 35 37 0 29 -1 30 -37 22
-146 -28 -216 32 -217 186 0 95 15 141 60 181 30 25 43 30 89 30 29 0 65 -4
79 -10 21 -8 27 -6 36 11 14 26 7 36 -38 49 -50 14 -109 12 -155 -5z"/>
<path d="M760 325 l0 -255 145 0 145 0 0 30 0 30 -110 0 -110 0 0 225 0 225
-35 0 -35 0 0 -255z"/>
<path d="M1160 324 l0 -256 98 4 c112 4 164 27 206 87 69 100 57 285 -23 361
-47 45 -97 60 -200 60 l-81 0 0 -256z m207 176 c53 -32 67 -63 71 -159 3 -75
0 -92 -20 -131 -28 -54 -73 -80 -140 -80 l-48 0 0 195 0 195 53 0 c34 0 63 -7
84 -20z"/>
</g>
</svg>
