<?xml version="1.0" standalone="no"?>
<!DOCTYPE svg PUBLIC "-//W3C//DTD SVG 20010904//EN"
 "http://www.w3.org/TR/2001/REC-SVG-20010904/DTD/svg10.dtd">
<svg version="1.0" xmlns="http://www.w3.org/2000/svg"
 width="85.000000pt" height="72.000000pt" viewBox="0 0 85.000000 72.000000"
 preserveAspectRatio="xMidYMid meet">
<metadata>
Created by potrace 1.16, written by Peter Selinger 2001-2019
</metadata>
<g transform="translate(0.000000,72.000000) scale(0.100000,-0.100000)"
fill="#000000" stroke="none">
<path d="M394 576 c-53 -24 -74 -54 -74 -109 0 -44 4 -53 41 -90 26 -26 36
-43 28 -46 -7 -2 -28 -18 -47 -36 -29 -26 -35 -40 -39 -81 -5 -59 10 -90 56
-121 43 -29 144 -32 198 -6 97 46 96 172 -2 233 l-36 22 30 19 c41 25 64 63
64 107 0 53 -18 81 -66 103 -49 22 -109 24 -153 5z m139 -64 c27 -24 22 -78
-9 -107 -42 -39 -62 -40 -102 -7 -59 47 -52 122 12 135 32 7 79 -3 99 -21z
m-15 -232 c47 -34 60 -67 42 -109 -14 -34 -47 -51 -101 -51 -52 0 -73 12 -89
49 -17 42 2 94 43 120 43 28 57 26 105 -9z"/>
</g>
</svg>
