<?xml version="1.0" standalone="no"?>
<!DOCTYPE svg PUBLIC "-//W3C//DTD SVG 20010904//EN"
 "http://www.w3.org/TR/2001/REC-SVG-20010904/DTD/svg10.dtd">
<svg version="1.0" xmlns="http://www.w3.org/2000/svg"
 width="85.000000pt" height="72.000000pt" viewBox="0 0 85.000000 72.000000"
 preserveAspectRatio="xMidYMid meet">
<metadata>
Created by potrace 1.16, written by Peter Selinger 2001-2019
</metadata>
<g transform="translate(0.000000,72.000000) scale(0.100000,-0.100000)"
fill="#000000" stroke="none">
<path d="M387 544 c-63 -32 -67 -36 -56 -57 7 -12 13 -23 14 -25 2 -2 26 9 55
23 29 14 53 25 54 23 1 -2 0 -90 -2 -195 l-4 -193 -49 0 c-46 0 -49 -2 -49
-25 l0 -25 135 0 135 0 0 25 c0 23 -3 25 -50 25 l-50 0 0 230 0 230 -32 0
c-18 -1 -63 -17 -101 -36z"/>
</g>
</svg>
