<?xml version="1.0" standalone="no"?>
<!DOCTYPE svg PUBLIC "-//W3C//DTD SVG 20010904//EN"
 "http://www.w3.org/TR/2001/REC-SVG-20010904/DTD/svg10.dtd">
<svg version="1.0" xmlns="http://www.w3.org/2000/svg"
 width="85.000000pt" height="72.000000pt" viewBox="0 0 85.000000 72.000000"
 preserveAspectRatio="xMidYMid meet">
<metadata>
Created by potrace 1.16, written by Peter Selinger 2001-2019
</metadata>
<g transform="translate(0.000000,72.000000) scale(0.100000,-0.100000)"
fill="#000000" stroke="none">
<path d="M394 576 c-66 -29 -98 -109 -98 -246 0 -118 21 -186 70 -230 31 -27
42 -30 99 -30 57 0 68 3 99 30 45 40 66 96 73 194 6 92 -13 189 -49 238 -38
54 -126 73 -194 44z m126 -61 c10 -11 -4 -40 -71 -152 l-83 -138 -8 45 c-9 48
-2 149 14 190 18 47 48 70 94 70 24 0 47 -6 54 -15z m59 -180 c1 -126 -27
-191 -88 -209 -24 -7 -41 -5 -67 7 -19 10 -33 21 -31 25 2 4 41 70 87 146 93
155 98 157 99 31z"/>
</g>
</svg>
