<?xml version="1.0" standalone="no"?>
<!DOCTYPE svg PUBLIC "-//W3C//DTD SVG 20010904//EN"
 "http://www.w3.org/TR/2001/REC-SVG-20010904/DTD/svg10.dtd">
<svg version="1.0" xmlns="http://www.w3.org/2000/svg"
 width="85.000000pt" height="72.000000pt" viewBox="0 0 85.000000 72.000000"
 preserveAspectRatio="xMidYMid meet">
<metadata>
Created by potrace 1.16, written by Peter Selinger 2001-2019
</metadata>
<g transform="translate(0.000000,72.000000) scale(0.100000,-0.100000)"
fill="#000000" stroke="none">
<path d="M376 575 c-56 -20 -70 -36 -52 -60 14 -19 15 -19 50 -2 49 23 117 22
147 -2 16 -13 23 -29 23 -55 0 -55 -29 -79 -104 -84 -58 -4 -60 -5 -60 -32 0
-26 2 -27 66 -33 82 -6 114 -31 114 -89 0 -74 -70 -111 -173 -90 -29 6 -60 14
-69 17 -15 6 -18 2 -18 -23 0 -39 35 -52 139 -52 126 0 185 46 185 144 1 63
-16 88 -79 117 -23 11 -32 19 -21 19 10 0 33 15 52 34 29 29 34 41 34 79 0
102 -112 156 -234 112z"/>
</g>
</svg>
