<?xml version="1.0" standalone="no"?>
<!DOCTYPE svg PUBLIC "-//W3C//DTD SVG 20010904//EN"
 "http://www.w3.org/TR/2001/REC-SVG-20010904/DTD/svg10.dtd">
<svg version="1.0" xmlns="http://www.w3.org/2000/svg"
 width="85.000000pt" height="72.000000pt" viewBox="0 0 85.000000 72.000000"
 preserveAspectRatio="xMidYMid meet">
<metadata>
Created by potrace 1.16, written by Peter Selinger 2001-2019
</metadata>
<g transform="translate(0.000000,72.000000) scale(0.100000,-0.100000)"
fill="#000000" stroke="none">
<path d="M384 576 c-116 -52 -122 -247 -9 -300 49 -23 125 -17 166 13 l29 22
0 -24 c0 -102 -84 -176 -186 -164 -43 4 -44 4 -44 -25 l0 -30 78 3 c103 5 148
33 188 116 26 52 29 68 29 158 0 117 -21 177 -76 215 -40 29 -129 37 -175 16z
m121 -50 c41 -17 65 -60 65 -116 0 -50 -31 -86 -84 -95 -82 -16 -126 20 -126
103 0 65 12 89 53 107 41 18 50 18 92 1z"/>
</g>
</svg>
