<?xml version="1.0" standalone="no"?>
<!DOCTYPE svg PUBLIC "-//W3C//DTD SVG 20010904//EN"
 "http://www.w3.org/TR/2001/REC-SVG-20010904/DTD/svg10.dtd">
<svg version="1.0" xmlns="http://www.w3.org/2000/svg"
 width="85.000000pt" height="72.000000pt" viewBox="0 0 85.000000 72.000000"
 preserveAspectRatio="xMidYMid meet">
<metadata>
Created by potrace 1.16, written by Peter Selinger 2001-2019
</metadata>
<g transform="translate(0.000000,72.000000) scale(0.100000,-0.100000)"
fill="#000000" stroke="none">
<path d="M445 578 c-83 -29 -127 -92 -145 -204 -21 -130 8 -233 79 -281 46
-31 139 -32 188 -2 88 55 96 220 12 279 -57 41 -146 38 -194 -6 l-28 -26 7 48
c14 102 66 146 172 146 65 -1 65 0 62 26 -3 26 -6 27 -63 29 -33 1 -73 -3 -90
-9z m85 -243 c59 -30 63 -144 8 -190 -75 -64 -178 -5 -178 103 0 78 94 126
170 87z"/>
</g>
</svg>
