<?xml version="1.0" standalone="no"?>
<!DOCTYPE svg PUBLIC "-//W3C//DTD SVG 20010904//EN"
 "http://www.w3.org/TR/2001/REC-SVG-20010904/DTD/svg10.dtd">
<svg version="1.0" xmlns="http://www.w3.org/2000/svg"
 width="85.000000pt" height="72.000000pt" viewBox="0 0 85.000000 72.000000"
 preserveAspectRatio="xMidYMid meet">
<metadata>
Created by potrace 1.16, written by Peter Selinger 2001-2019
</metadata>
<g transform="translate(0.000000,72.000000) scale(0.100000,-0.100000)"
fill="#000000" stroke="none">
<path d="M320 325 l0 -255 100 0 c158 0 210 34 218 140 4 55 2 61 -26 90 -17
16 -38 30 -46 30 -24 0 -19 13 13 31 55 32 65 133 18 176 -32 30 -89 43 -189
43 l-88 0 0 -255z m220 175 c12 -12 20 -33 20 -55 0 -57 -27 -75 -110 -75
l-70 0 0 75 0 75 70 0 c57 0 74 -4 90 -20z m11 -217 c31 -31 31 -94 0 -127
-22 -23 -32 -26 -98 -26 l-73 0 0 91 0 91 75 -4 c60 -3 79 -8 96 -25z"/>
</g>
</svg>
