<?xml version="1.0" standalone="no"?>
<!DOCTYPE svg PUBLIC "-//W3C//DTD SVG 20010904//EN"
 "http://www.w3.org/TR/2001/REC-SVG-20010904/DTD/svg10.dtd">
<svg version="1.0" xmlns="http://www.w3.org/2000/svg"
 width="85.000000pt" height="72.000000pt" viewBox="0 0 85.000000 72.000000"
 preserveAspectRatio="xMidYMid meet">
<metadata>
Created by potrace 1.16, written by Peter Selinger 2001-2019
</metadata>
<g transform="translate(0.000000,72.000000) scale(0.100000,-0.100000)"
fill="#000000" stroke="none">
<path d="M415 581 c-37 -9 -92 -37 -100 -52 -4 -5 1 -19 10 -29 17 -19 18 -19
48 2 16 12 51 23 78 26 41 4 51 1 73 -21 30 -30 34 -70 11 -124 -9 -20 -65
-87 -125 -148 -85 -86 -110 -117 -110 -138 l0 -27 170 0 170 0 0 30 0 30 -124
0 -124 0 88 88 c102 102 130 150 130 222 0 89 -37 131 -125 143 -22 3 -53 2
-70 -2z"/>
</g>
</svg>
