<?xml version="1.0" standalone="no"?>
<!DOCTYPE svg PUBLIC "-//W3C//DTD SVG 20010904//EN"
 "http://www.w3.org/TR/2001/REC-SVG-20010904/DTD/svg10.dtd">
<svg version="1.0" xmlns="http://www.w3.org/2000/svg"
 width="85.000000pt" height="72.000000pt" viewBox="0 0 85.000000 72.000000"
 preserveAspectRatio="xMidYMid meet">
<metadata>
Created by potrace 1.16, written by Peter Selinger 2001-2019
</metadata>
<g transform="translate(0.000000,72.000000) scale(0.100000,-0.100000)"
fill="#000000" stroke="none">
<path d="M336 548 c-14 -89 -17 -200 -6 -213 8 -10 29 -12 78 -9 56 5 72 2
100 -15 39 -25 56 -64 47 -108 -12 -67 -91 -96 -187 -71 l-58 15 0 -29 c0 -37
28 -48 123 -48 86 0 131 19 165 70 33 49 28 146 -8 186 -35 38 -80 54 -151 54
l-62 0 7 38 c3 20 6 52 6 70 l0 32 100 0 100 0 0 30 0 30 -125 0 -124 0 -5
-32z"/>
</g>
</svg>
