<?xml version="1.0" standalone="no"?>
<!DOCTYPE svg PUBLIC "-//W3C//DTD SVG 20010904//EN"
 "http://www.w3.org/TR/2001/REC-SVG-20010904/DTD/svg10.dtd">
<svg version="1.0" xmlns="http://www.w3.org/2000/svg"
 width="85.000000pt" height="72.000000pt" viewBox="0 0 85.000000 72.000000"
 preserveAspectRatio="xMidYMid meet">
<metadata>
Created by potrace 1.16, written by Peter Selinger 2001-2019
</metadata>
<g transform="translate(0.000000,72.000000) scale(0.100000,-0.100000)"
fill="#000000" stroke="none">
<path d="M448 503 c-148 -241 -158 -259 -158 -291 l0 -32 110 0 110 0 0 -55
c0 -54 0 -55 30 -55 30 0 30 1 30 54 l0 55 38 3 c32 3 37 7 40 31 3 26 1 27
-37 27 l-41 0 0 175 0 175 -34 0 c-33 0 -38 -5 -88 -87z m59 -260 c-3 -2 -38
-3 -80 -1 l-75 3 69 115 c38 63 72 124 77 135 4 11 8 -40 10 -114 1 -73 1
-136 -1 -138z"/>
</g>
</svg>
